{"asset":{"version":"2.0","generator":"Blockbench 4.10.4 glTF exporter"},"scenes":[{"nodes":[3],"name":"blockbench_export"}],"scene":0,"nodes":[{"translation":[0,1.0625,0],"name":"pyramid","mesh":0},{"rotation":[0.7071067811865475,0,0,0.7071067811865476],"translation":[0,1.25,-1.5625],"name":"cylinder","mesh":1},{"translation":[0,0.75,1.3125],"name":"cuboid","mesh":2},{"children":[0,1,2]}],"bufferViews":[{"buffer":0,"byteOffset":0,"byteLength":192,"target":34962,"byteStride":12},{"buffer":0,"byteOffset":192,"byteLength":192,"target":34962,"byteStride":12},{"buffer":0,"byteOffset":384,"byteLength":128,"target":34962,"byteStride":8},{"buffer":0,"byteOffset":512,"byteLength":36,"target":34963},{"buffer":0,"byteOffset":548,"byteLength":720,"target":34962,"byteStride":12},{"buffer":0,"byteOffset":1268,"byteLength":720,"target":34962,"byteStride":12},{"buffer":0,"byteOffset":1988,"byteLength":480,"target":34962,"byteStride":8},{"buffer":0,"byteOffset":2468,"byteLength":144,"target":34963},{"buffer":0,"byteOffset":2612,"byteLength":288,"target":34962,"byteStride":12},{"buffer":0,"byteOffset":2900,"byteLength":288,"target":34962,"byteStride":12},{"buffer":0,"byteOffset":3188,"byteLength":192,"target":34962,"byteStride":8},{"buffer":0,"byteOffset":3380,"byteLength":72,"target":34963}],"buffers":[{"byteLength":3452,"uri":"data:application/octet-stream;base64,"}],"accessors":[{"bufferView":0,"componentType":5126,"count":16,"max":[0.5,0,0.5],"min":[-0.5,-1.0625,-0.5],"type":"VEC3"},{"bufferView":1,"componentType":5126,"count":16,"max":[0.9048187136650085,0.4257970452308655,0.9048187136650085],"min":[-0.9048187136650085,-1,-0.9048187136650085],"type":"VEC3"},{"bufferView":2,"componentType":5126,"count":16,"max":[0.828125,0.8125],"min":[0.0021791537292301655,0],"type":"VEC2"},{"bufferView":3,"componentType":5123,"count":18,"max":[15],"min":[0],"type":"SCALAR"},{"bufferView":4,"componentType":5126,"count":60,"max":[0.5773502588272095,0.5,0.5],"min":[-0.5773502588272095,0,-0.5],"type":"VEC3"},{"bufferView":5,"componentType":5126,"count":60,"max":[0.8660253882408142,1,1],"min":[-0.8660253882408142,-1,-1],"type":"VEC3"},{"bufferView":6,"componentType":5126,"count":60,"max":[0.96875,0.9375],"min":[0,0.28125],"type":"VEC2"},{"bufferView":7,"componentType":5123,"count":72,"max":[59],"min":[0],"type":"SCALAR"},{"bufferView":8,"componentType":5126,"count":24,"max":[0.5,0.5,0.5],"min":[-0.5,0,-0.5],"type":"VEC3"},{"bufferView":9,"componentType":5126,"count":24,"max":[1,1,0.7525767087936401],"min":[-1,-1,-1],"type":"VEC3"},{"bufferView":10,"componentType":5126,"count":24,"max":[0.890625,0.9375],"min":[0,0],"type":"VEC2"},{"bufferView":11,"componentType":5123,"count":36,"max":[23],"min":[0],"type":"SCALAR"}],"materials":[{"pbrMetallicRoughness":{"metallicFactor":0,"roughnessFactor":1,"baseColorTexture":{"index":0}},"alphaMode":"MASK","alphaCutoff":0.05,"doubleSided":true}],"textures":[{"sampler":0,"source":0,"name":"texture"}],"samplers":[{"magFilter":9728,"minFilter":9728,"wrapS":33071,"wrapT":33071}],"images":[{"mimeType":"image/png","uri":"data:image/png;base64,"}],"meshes":[{"primitives":[{"mode":4,"attributes":{"POSITION":0,"NORMAL":1,"TEXCOORD_0":2},"indices":3,"material":0}]},{"primitives":[{"mode":4,"attributes":{"POSITION":4,"NORMAL":5,"TEXCOORD_0":6},"indices":7,"material":0}]},{"primitives":[{"mode":4,"attributes":{"POSITION":8,"NORMAL":9,"TEXCOORD_0":10},"indices":11,"material":0}]}]}