{"asset":{"version":"2.0","generator":"Blockbench 4.10.4 glTF exporter"},"scenes":[{"nodes":[12],"name":"blockbench_export"}],"scene":0,"nodes":[{"rotation":[0,0,0.7071067811865475,0.7071067811865476],"translation":[-0.75,0.5,-1.875],"name":"cylinder","mesh":0},{"name":"front_wheel_left","children":[0]},{"rotation":[0,0,0.7071067811865475,0.7071067811865476],"translation":[-0.75,0.5,-1.875],"name":"cylinder","mesh":1},{"translation":[0,0,3.75],"name":"back_wheel_left","children":[2]},{"rotation":[0,0,-0.7071067811865475,0.7071067811865476],"translation":[0.75,0.5,-1.875],"name":"cylinder","mesh":2},{"name":"front_wheel_right","children":[4]},{"rotation":[0,0,-0.7071067811865475,0.7071067811865476],"translation":[0.75,0.5,-1.875],"name":"cylinder","mesh":3},{"translation":[0,0,3.75],"name":"back_wheel_right","children":[6]},{"translation":[0,1.1875,0],"name":"cuboid","mesh":4},{"translation":[1.8125,1.46875,-1.625],"name":"mirror_right","mesh":5},{"translation":[-1.8125,1.46875,-1.625],"name":"mirror_right","mesh":6},{"name":"root","children":[1,3,5,7,8,9,10]},{"children":[11]}],"bufferViews":[{"buffer":0,"byteOffset":0,"byteLength":1728,"target":34962,"byteStride":12},{"buffer":0,"byteOffset":1728,"byteLength":1728,"target":34962,"byteStride":12},{"buffer":0,"byteOffset":3456,"byteLength":1152,"target":34962,"byteStride":8},{"buffer":0,"byteOffset":4608,"byteLength":384,"target":34963},{"buffer":0,"byteOffset":4992,"byteLength":1728,"target":34962,"byteStride":12},{"buffer":0,"byteOffset":6720,"byteLength":1728,"target":34962,"byteStride":12},{"buffer":0,"byteOffset":8448,"byteLength":1152,"target":34962,"byteStride":8},{"buffer":0,"byteOffset":9600,"byteLength":384,"target":34963},{"buffer":0,"byteOffset":9984,"byteLength":1728,"target":34962,"byteStride":12},{"buffer":0,"byteOffset":11712,"byteLength":1728,"target":34962,"byteStride":12},{"buffer":0,"byteOffset":13440,"byteLength":1152,"target":34962,"byteStride":8},{"buffer":0,"byteOffset":14592,"byteLength":384,"target":34963},{"buffer":0,"byteOffset":14976,"byteLength":1728,"target":34962,"byteStride":12},{"buffer":0,"byteOffset":16704,"byteLength":1728,"target":34962,"byteStride":12},{"buffer":0,"byteOffset":18432,"byteLength":1152,"target":34962,"byteStride":8},{"buffer":0,"byteOffset":19584,"byteLength":384,"target":34963},{"buffer":0,"byteOffset":19968,"byteLength":3768,"target":34962,"byteStride":12},{"buffer":0,"byteOffset":23736,"byteLength":3768,"target":34962,"byteStride":12},{"buffer":0,"byteOffset":27504,"byteLength":2512,"target":34962,"byteStride":8},{"buffer":0,"byteOffset":30016,"byteLength":924,"target":34963},{"buffer":0,"byteOffset":30940,"byteLength":672,"target":34962,"byteStride":12},{"buffer":0,"byteOffset":31612,"byteLength":672,"target":34962,"byteStride":12},{"buffer":0,"byteOffset":32284,"byteLength":448,"target":34962,"byteStride":8},{"buffer":0,"byteOffset":32732,"byteLength":168,"target":34963},{"buffer":0,"byteOffset":32900,"byteLength":672,"target":34962,"byteStride":12},{"buffer":0,"byteOffset":33572,"byteLength":672,"target":34962,"byteStride":12},{"buffer":0,"byteOffset":34244,"byteLength":448,"target":34962,"byteStride":8},{"buffer":0,"byteOffset":34692,"byteLength":168,"target":34963}],"buffers":[{"byteLength":34860,"uri":"data:application/octet-stream;base64,"}],"accessors":[{"bufferView":0,"componentType":5126,"count":144,"max":[0.5,0.5,0.5],"min":[-0.5,0,-0.5],"type":"VEC3"},{"bufferView":1,"componentType":5126,"count":144,"max":[1,1,1],"min":[-1,-1,-1],"type":"VEC3"},{"bufferView":2,"componentType":5126,"count":144,"max":[0.45703125,0.5859375],"min":[0,0],"type":"VEC2"},{"bufferView":3,"componentType":5123,"count":192,"max":[143],"min":[0],"type":"SCALAR"},{"bufferView":4,"componentType":5126,"count":144,"max":[0.5,0.5,0.5],"min":[-0.5,0,-0.5],"type":"VEC3"},{"bufferView":5,"componentType":5126,"count":144,"max":[1,1,1],"min":[-1,-1,-1],"type":"VEC3"},{"bufferView":6,"componentType":5126,"count":144,"max":[0.59375,0.59765625],"min":[0.16796875,0.125],"type":"VEC2"},{"bufferView":7,"componentType":5123,"count":192,"max":[143],"min":[0],"type":"SCALAR"},{"bufferView":8,"componentType":5126,"count":144,"max":[0.5,0.5,0.5],"min":[-0.5,0,-0.5],"type":"VEC3"},{"bufferView":9,"componentType":5126,"count":144,"max":[1,1,1],"min":[-1,-1,-1],"type":"VEC3"},{"bufferView":10,"componentType":5126,"count":144,"max":[0.6015625,0.6015625],"min":[0,0.03125],"type":"VEC2"},{"bufferView":11,"componentType":5123,"count":192,"max":[143],"min":[0],"type":"SCALAR"},{"bufferView":12,"componentType":5126,"count":144,"max":[0.5,0.5,0.5],"min":[-0.5,0,-0.5],"type":"VEC3"},{"bufferView":13,"componentType":5126,"count":144,"max":[1,1,1],"min":[-1,-1,-1],"type":"VEC3"},{"bufferView":14,"componentType":5126,"count":144,"max":[0.6171875,0.625],"min":[0,0.2734375],"type":"VEC2"},{"bufferView":15,"componentType":5123,"count":192,"max":[143],"min":[0],"type":"SCALAR"},{"bufferView":16,"componentType":5126,"count":314,"max":[1.25,1.5,3],"min":[-1.25,-0.6875,-3],"type":"VEC3"},{"bufferView":17,"componentType":5126,"count":314,"max":[1,1,1],"min":[-1,-1,-1],"type":"VEC3"},{"bufferView":18,"componentType":5126,"count":314,"max":[0.6431804895401001,0.59765625],"min":[0,0],"type":"VEC2"},{"bufferView":19,"componentType":5123,"count":462,"max":[313],"min":[0],"type":"SCALAR"},{"bufferView":20,"componentType":5126,"count":56,"max":[-0.25,0.5,0.3125],"min":[-0.5625,0.3125,0.125],"type":"VEC3"},{"bufferView":21,"componentType":5126,"count":56,"max":[1,1,1],"min":[-1,-1,-1],"type":"VEC3"},{"bufferView":22,"componentType":5126,"count":56,"max":[0.2172578126192093,0.1640625],"min":[0.0017126953462138772,0.015625],"type":"VEC2"},{"bufferView":23,"componentType":5123,"count":84,"max":[55],"min":[0],"type":"SCALAR"},{"bufferView":24,"componentType":5126,"count":56,"max":[0.5625,0.5,0.3125],"min":[0.25,0.3125,0.125],"type":"VEC3"},{"bufferView":25,"componentType":5126,"count":56,"max":[1,1,1],"min":[-1,-1,-1],"type":"VEC3"},{"bufferView":26,"componentType":5126,"count":56,"max":[0.2211640626192093,0.19140625],"min":[0.1328125,0],"type":"VEC2"},{"bufferView":27,"componentType":5123,"count":84,"max":[55],"min":[0],"type":"SCALAR"}],"materials":[{"pbrMetallicRoughness":{"metallicFactor":0,"roughnessFactor":1,"baseColorTexture":{"index":0}},"alphaMode":"MASK","alphaCutoff":0.05,"doubleSided":true}],"textures":[{"sampler":0,"source":0,"name":"car_texture.png"}],"samplers":[{"magFilter":9728,"minFilter":9728,"wrapS":33071,"wrapT":33071}],"images":[{"mimeType":"image/png","uri":"data:image/png;base64,"}],"meshes":[{"primitives":[{"mode":4,"attributes":{"POSITION":0,"NORMAL":1,"TEXCOORD_0":2},"indices":3,"material":0}]},{"primitives":[{"mode":4,"attributes":{"POSITION":4,"NORMAL":5,"TEXCOORD_0":6},"indices":7,"material":0}]},{"primitives":[{"mode":4,"attributes":{"POSITION":8,"NORMAL":9,"TEXCOORD_0":10},"indices":11,"material":0}]},{"primitives":[{"mode":4,"attributes":{"POSITION":12,"NORMAL":13,"TEXCOORD_0":14},"indices":15,"material":0}]},{"primitives":[{"mode":4,"attributes":{"POSITION":16,"NORMAL":17,"TEXCOORD_0":18},"indices":19,"material":0}]},{"primitives":[{"mode":4,"attributes":{"POSITION":20,"NORMAL":21,"TEXCOORD_0":22},"indices":23,"material":0}]},{"primitives":[{"mode":4,"attributes":{"POSITION":24,"NORMAL":25,"TEXCOORD_0":26},"indices":27,"material":0}]}]}